<?xml version="1.0" encoding="utf-8"?>
<!-- Generator: Adobe Illustrator 22.0.1, SVG Export Plug-In . SVG Version: 6.00 Build 0)  -->
<svg version="1.1" id="Livello_1" xmlns="http://www.w3.org/2000/svg" xmlns:xlink="http://www.w3.org/1999/xlink" x="0px" y="0px"
	 viewBox="0 0 200 200" style="enable-background:new 0 0 200 200;" xml:space="preserve">
<style type="text/css">
	.st0{fill:#232323;}
	.st1{fill:#FFFFFF;}
</style>
<rect class="st0" width="200" height="200"/>
<g>
	<path class="st1" d="M73.8,62.3H20.3v75.8l54.2-0.3c20.4,0,21.9-12.2,21.9-22.3V85.8C96.4,67.5,84.6,62.3,73.8,62.3z M65.6,119.1
		H39.4V81.6h25.3c7.2,0,13.7-0.8,13.7,17.5v8.6C78.2,107.6,79.1,119.1,65.6,119.1z"/>
	<path class="st1" d="M175.1,100.1c0,0,16.3-38-13.6-38h-55v76.2h53.4C187.7,138,179.6,107.4,175.1,100.1z M157.4,124.4h-29.9v-15.8
		c0,0,25.1,0,29.1,0s4.6,4.5,4.6,8.9C161.1,121.9,157.4,124.4,157.4,124.4z M157.8,92.3h-29.9V76.6c0,0,25.1,0,29.1,0
		s4.6,4.5,4.6,8.9C161.5,89.7,157.8,92.3,157.8,92.3z"/>
</g>
</svg>
