<?xml version="1.0" encoding="utf-8"?>
<!-- Generator: Adobe Illustrator 22.0.1, SVG Export Plug-In . SVG Version: 6.00 Build 0)  -->
<svg version="1.1" id="Livello_1" xmlns="http://www.w3.org/2000/svg" xmlns:xlink="http://www.w3.org/1999/xlink" x="0px" y="0px"
	 viewBox="0 0 1200 209.5" style="enable-background:new 0 0 1200 209.5;" xml:space="preserve">
<style type="text/css">
	.st0{fill:#F4F4F4;}
</style>
<polygon class="st0" points="575.8,22.2 575.2,188.6 617.2,188.6 617.2,22.2 "/>
<path class="st0" d="M758.7,21h-33.9h-33.9c-23.7,0-49.8,11.4-49.8,51.6v65.7c0,22.2,3.3,49.2,48.3,49.2l35.7,0.3l35.7-0.3
	c45,0,48.3-27,48.3-49.2V72.6C808.8,32.7,782.7,21,758.7,21z M740.7,146.4h-15.9h-15.9c-29.7,0-27.9-25.2-27.9-25.2v-18.9
	c0-40.5,13.8-38.7,29.7-38.7h13.8h13.8c16.2,0,29.7-2.1,29.7,38.7v18.9C768.6,120.9,770.7,146.3,740.7,146.4z"/>
<path class="st0" d="M503,21H385.1v166.2h119.3c45,0,48.3-27,48.3-49.2l0.1-65.4C552.8,32.7,526.7,21,503,21z M484.6,146.4H427V63.6
	h55.8c16.2,0,29.7-2.1,29.7,38.7v18.9C512.5,121.2,514.6,146.4,484.6,146.4z"/>
<path class="st0" d="M152.7,116.4c0,0,21.9-1.5,21.9-48.9c0-48.6-41.7-45.9-41.7-45.9H17.1v166.7H57v-45h46.7c27.9,0,30,6,30,13.5
	V188h39v-36.6C172.7,122.1,152.7,116.4,152.7,116.4z M120.4,99.3c-15.7,0-63.7,0-63.7,0V56.7c0,0,59,0,68.4,0
	c9.4,0,10.9,9.6,10.9,21.3C136,89.4,127,99.3,120.4,99.3z"/>
<path class="st0" d="M306.1,21h-51.7l-70.9,167h45.3l12.6-27.6h75l13.5,27.6h42.6L306.1,21z M258.5,117.6l21.9-49.8l21.9,49.8
	C302.3,117.6,258.5,117.6,258.5,117.6z"/>
<path class="st0" d="M950.4,21.9H832.5v166.8l119.4-0.6c45,0,48.3-27,48.3-49.2V73.8C1000.2,33.3,973.8,21.9,950.4,21.9z
	 M960.3,122.1c-0.3-0.3,1.5,24.9-27.9,24.9h-57.6V64.5h55.8c16.2,0,29.7-2.1,29.7,38.7V122.1z"/>
<path class="st0" d="M1174.7,105.3c0,0,36-84-29.7-84h-121.2v167.6h117.3C1202.6,188.9,1184.6,121.2,1174.7,105.3z M1135.7,159
	c-16.9,0-66,0-66,0v-34.8c0,0,55.2,0,64.2,0s10.2,9.9,10.2,19.5C1143.8,153.3,1140.1,159,1135.7,159z M1136.6,88.2c-17,0-66,0-66,0
	V53.4c0,0,55.2,0,64.2,0c8.7,0,10.2,9.9,10.2,19.5C1144.7,82.5,1141,88.2,1136.6,88.2z"/>
</svg>
