<?xml version="1.0" encoding="utf-8"?>
<!-- Generator: Adobe Illustrator 22.0.1, SVG Export Plug-In . SVG Version: 6.00 Build 0)  -->
<svg version="1.1" id="Livello_1" xmlns="http://www.w3.org/2000/svg" xmlns:xlink="http://www.w3.org/1999/xlink" x="0px" y="0px"
	 viewBox="0 0 200 200" style="enable-background:new 0 0 200 200;" xml:space="preserve">
<style type="text/css">
	.st0{fill:#D8D8D8;}
</style>
<path class="st0" d="M79.4,169.6c-0.3,5.1,0,10.1-1,14.8c-0.9,4.4-5.2,5.9-10,4c-32.7-12.9-53.1-36.6-58.8-71.2
	C1.4,67.4,33,22.8,82.5,12.6C134,1.8,184.7,39.3,191.1,91.7c4.8,39.8-18.4,80.8-57.5,95.9c-8.9,3.4-12.8,0.7-12.9-9
	c-0.1-9.7-0.1-19.3-0.3-29c0-2-0.5-3.9-0.9-6.6c1.3-0.4,2.9-0.8,4.3-1.4c7-2.9,14.6-5,21-9c23.1-14.5,22-46.1,9.4-62.7
	c-1.9-2.5-2.4-4.5-1.6-7.6c1.8-6.5,1.7-13.2-1.2-19.5c-1.1-2.5-2.5-3.4-5.4-3c-7.7,1-14.4,4-20.2,9c-2.2,2-4.1,2.5-7.1,1.7
	c-12.5-3.1-25-2.8-37.6,0c-2,0.4-4.9-0.2-6.5-1.5C68.5,44.4,62,41,54.3,40c-3.3-0.5-5,0.7-6.1,3.5c-2.5,6.6-2.4,13.3-0.5,20.1
	c0.5,1.7,0.3,4.4-0.7,5.6C30.6,88.9,31.2,128,69.7,139.9c3.6,1.1,7.2,2.1,11,3.2c-0.4,2.1-0.8,3.7-1,5.3c-1.1,8.1-2.5,9.4-10.7,8.8
	c-7.7-0.5-13.8-3.7-18.6-10.1c-2.7-3.5-7-5.8-10.9-8.1c-1.5-0.9-3.9-0.1-6-0.1c-0.1,0.4-0.3,0.9-0.4,1.3c1.3,1.2,2.7,2.2,3.8,3.6
	c2.6,3.2,5.6,6.3,7.3,10c5.2,11.8,14.3,16.6,26.6,16.2C73.3,169.9,75.8,169.8,79.4,169.6z"/>
</svg>
