<?xml version="1.0" encoding="utf-8"?>
<!-- Generator: Adobe Illustrator 22.0.1, SVG Export Plug-In . SVG Version: 6.00 Build 0)  -->
<svg version="1.1" id="Livello_1" xmlns="http://www.w3.org/2000/svg" xmlns:xlink="http://www.w3.org/1999/xlink" x="0px" y="0px"
	 viewBox="0 0 200 200" style="enable-background:new 0 0 200 200;" xml:space="preserve">
<g>
	<path d="M93,48.8c-24.3,0-44,19.7-44,44s19.7,44,44,44s44-19.7,44-44C137,68.4,117.3,48.8,93,48.8z M93,119.6
		c-14.8,0-26.9-12-26.9-26.9s12-26.9,26.9-26.9s26.9,12,26.9,26.9S107.9,119.6,93,119.6z"/>
	<g>
		<path d="M135.1,149.9l-22.7-22.7c-1.9-1.9-1.9-4.8,0-6.6l7.9-7.9c1.9-1.9,4.8-1.9,6.6,0l22.7,22.7c1.9,1.9,1.9,4.8,0,6.6l-7.9,7.9
			C139.9,151.6,137,151.6,135.1,149.9z"/>
	</g>
</g>
</svg>
