<?xml version="1.0" encoding="utf-8"?>
<!-- Generator: Adobe Illustrator 22.0.1, SVG Export Plug-In . SVG Version: 6.00 Build 0)  -->
<svg version="1.1" id="Livello_1" xmlns="http://www.w3.org/2000/svg" xmlns:xlink="http://www.w3.org/1999/xlink" x="0px" y="0px"
	 viewBox="0 0 200 200" style="enable-background:new 0 0 200 200;" xml:space="preserve">
<style type="text/css">
	.st0{fill:#EFEFEF;}
</style>
<g>
	<path class="st0" d="M28.2,165.2c0-25.1,0-50,0-75.1c32.1,0,64.2,0,96.5,0c0,25,0,50,0,75.1C92.6,165.2,60.5,165.2,28.2,165.2z"/>
	<path class="st0" d="M50.4,81.2c-12.7,0-23.1-10.3-23.1-23c0-12.9,10.2-23.3,23-23.3c12.8,0,23.1,10.3,23.2,23.1
		C73.5,70.8,63.2,81.2,50.4,81.2z"/>
	<path class="st0" d="M78.1,57.9c0-12.9,10.3-23.1,23.1-23.1c12.8,0,23,10.4,23,23.3c0,12.8-10.4,23.1-23.2,23
		C88.3,81.1,78.1,70.7,78.1,57.9z"/>
	<path class="st0" d="M172.7,91.5c0,24.1,0,48,0,72.2c-0.5-0.5-0.9-0.8-1.3-1.2c-6.6-6.6-13.2-13.2-19.8-19.8
		c-0.6-0.6-1.1-1.8-1.1-2.7c-0.1-9.9,0-19.7-0.1-29.6c0-1.2,0.3-1.9,1.3-2.6c6.7-5.1,13.3-10.3,19.9-15.5
		C171.9,92,172.2,91.9,172.7,91.5z"/>
	<path class="st0" d="M131.1,109.3c9.3,0,18.6,0,28.2,0c0,12.2,0,24.3,0,36.6c-9.3,0-18.6,0-28.2,0
		C131.1,133.8,131.1,121.6,131.1,109.3z"/>
</g>
</svg>
